<svg xmlns="http://www.w3.org/2000/svg" version="1.1" xmlns:xlink="http://www.w3.org/1999/xlink" xmlns:svgjs="http://svgjs.dev/svgjs" width="1500" height="1500" viewBox="0 0 1500 1500"><rect width="1500" height="1500" fill="#14293a"></rect><g transform="matrix(0.6666666666666666,0,0,0.6666666666666666,250,437.6666666666667)"><svg viewBox="0 0 512 320" data-background-color="#14293a" preserveAspectRatio="xMidYMid meet" height="937" width="1500" xmlns="http://www.w3.org/2000/svg" xmlns:xlink="http://www.w3.org/1999/xlink"><g id="tight-bounds" transform="matrix(1,0,0,1,0,0)"><svg viewBox="0 0 512 320" height="320" width="512"><g><svg></svg></g><g><svg viewBox="0 0 512 320" height="320" width="512"><g><path d="M96 160c0-88.366 71.634-160 160-160 88.366 0 160 71.634 160 160 0 88.366-71.634 160-160 160-88.366 0-160-71.634-160-160zM256 316.493c86.429 0 156.493-70.064 156.493-156.493 0-86.429-70.064-156.493-156.493-156.493-86.429 0-156.493 70.064-156.493 156.493 0 86.429 70.064 156.493 156.493 156.493z" fill="#e9e4de" fill-rule="nonzero" stroke="none" stroke-width="1" stroke-linecap="butt" stroke-linejoin="miter" stroke-miterlimit="10" stroke-dasharray="" stroke-dashoffset="0" font-family="none" font-weight="none" font-size="none" text-anchor="none" style="mix-blend-mode: normal" data-fill-palette-color="tertiary"></path></g><g transform="matrix(1,0,0,1,128,115.63598325053857)"><svg viewBox="0 0 256 88.72803349892287" height="88.72803349892287" width="256"><g><svg viewBox="0 0 414.5446989782307 143.67865600680216" height="88.72803349892287" width="256"><g transform="matrix(1,0,0,1,158.54469897823074,42.697980852462834)"><svg viewBox="0 0 256 58.28269430187648" height="58.28269430187648" width="256"><g id="textblocktransform"><svg viewBox="0 0 256 58.28269430187648" height="58.28269430187648" width="256" id="textblock"><g><svg viewBox="0 0 256 31.485714285714288" height="31.485714285714288" width="256"><g transform="matrix(1,0,0,1,0,0)"><svg width="256" viewBox="-12.65 -26.95 223.99 27.55" height="31.485714285714288" data-palette-color="#e9e4de"><g class="wordmark-text-0" data-fill-palette-color="primary" id="text-0"><path d="M31.9 0L22.75 0 20.4-8.65 20.1-8.65 18.6 0 10.2 0 14.8-26.45 23.25-26.45 21.8-18.35 22.05-18.35 27.2-26.45 36.35-26.45 27.95-13.5 31.9 0ZM8.95-2.4L8.55-0.15-12.65-2.4 8.95-2.4ZM10.65-12.05L10.25-9.8-10.95-12.05 10.65-12.05ZM11.5-16.85L11.1-14.6-10.1-16.85 11.5-16.85ZM12.35-21.65L11.95-19.4-9.25-21.65 12.35-21.65ZM13.15-26.45L12.8-24.2-8.4-26.45 13.15-26.45ZM9.8-7.25L9.4-5-11.8-7.25 9.8-7.25ZM45.5-12.05L45.1-9.8 23.9-12.05 45.5-12.05ZM46.35-16.85L45.95-14.6 24.75-16.85 46.35-16.85ZM47.2-21.65L46.8-19.4 25.6-21.65 47.2-21.65ZM48-26.45L47.65-24.2 26.45-26.45 48-26.45ZM23.75-7.25L44.9-7.25 44.9-6.25Q44.9-5.4 44.95-5L44.95-5 23.75-7.25ZM46.85-0.15L46.85-0.15 25.65-2.4 45.4-2.4Q45.95-1 46.85-0.15ZM54.6-7L57.1-7Q58.45-7 58.97-7.33 59.5-7.65 59.7-8.9L59.7-8.9 62.85-26.45 71.25-26.45 68.65-11.55Q67.45-4.55 64.77-1.98 62.1 0.6 55.65 0.6L55.65 0.6Q50.5 0.6 48.45-0.93 46.4-2.45 46.4-6.25L46.4-6.25Q46.4-8.35 46.95-11.55L46.95-11.55 49.6-26.45 58-26.45 54.6-7ZM80.2-0.15L59.3-2.4 80.9-2.4 80.2-0.15ZM63.15-21.65L84.7-21.65Q84.4-20.85 84.05-19.4L84.05-19.4 63.15-21.65ZM83.45-15L83.45-15 83.45-14.6 62.25-16.85 83.55-16.85Q83.45-15.65 83.45-15ZM82.5-7.25L81.8-5.05 60.95-7.25 82.5-7.25ZM66.6-26.45L88.15-26.45Q86.8-25.45 86.1-24.35L86.1-24.35 66.6-26.45ZM64.2-12.05L83.9-12.05Q84.35-10.75 85.35-9.8L85.35-9.8 64.2-12.05ZM106.25-25.9L103.84-18.6Q100.45-19.4 98.05-19.4 95.65-19.4 94.5-19.25L94.5-19.25 94.25-17.8 96.75-17.5Q104.8-16.45 104.8-10.85L104.8-10.85Q104.8-10.2 104.5-8.43 104.2-6.65 103.5-5 102.8-3.35 101.72-2.33 100.65-1.3 99.62-0.68 98.6-0.05 97 0.2L97 0.2Q94.5 0.6 90.32 0.6 86.15 0.6 81.9-0.55L81.9-0.55 84.35-7.95Q88.25-6.85 91.17-6.85 94.1-6.85 95.3-7L95.3-7 95.55-8.6 92.4-8.95Q88.35-9.4 86.65-10.85 84.95-12.3 84.95-15L84.95-15Q84.95-16 85.2-17.5L85.2-17.5Q86.2-22.85 88.8-24.9 91.4-26.95 96.72-26.95 102.05-26.95 106.25-25.9L106.25-25.9ZM139.74 0L131.34 0 132.89-9.15 127.29-9.15 125.69 0 117.29 0 121.89-26.45 130.34-26.45 128.69-17.3 134.34-17.3 135.94-26.45 144.39-26.45 139.74 0ZM116.04-2.4L115.64-0.15 94.44-2.4 116.04-2.4ZM117.74-12.05L117.34-9.8 96.14-12.05 117.74-12.05ZM118.59-16.85L118.19-14.6 96.99-16.85 118.59-16.85ZM119.44-21.65L119.04-19.4 97.84-21.65 119.44-21.65ZM120.24-26.45L119.89-24.2 98.69-26.45 120.24-26.45ZM116.89-7.25L116.49-5 95.29-7.25 116.89-7.25ZM180.74 0L171.99 0 171.79-4.05 165.49-4.05 163.94 0 155.29 0 166.39-26.45 178.79-26.45 180.74 0ZM168.14-11.2L171.79-11.2 171.79-18.8 171.09-18.8 168.14-11.2ZM154.64-2.4L153.69-0.2 133.19-2.4 154.64-2.4ZM156.69-7.25L155.74-5.05 135.24-7.25 156.69-7.25ZM158.69-12.05L157.79-9.85 137.29-12.05 158.69-12.05ZM160.74-16.85L159.79-14.65 139.34-16.85 160.74-16.85ZM162.74-21.65L161.84-19.45 141.39-21.65 162.74-21.65ZM164.74-26.45L163.84-24.3 143.44-26.45 164.74-26.45ZM211.34-7.35L210.04 0 193.79 0 198.39-26.45 207.19-26.45 203.84-7.35 211.34-7.35ZM192.54-2.4L192.14-0.15 170.94-2.4 192.54-2.4ZM194.24-12.05L193.84-9.8 172.64-12.05 194.24-12.05ZM195.09-16.85L194.69-14.6 173.49-16.85 195.09-16.85ZM195.94-21.65L195.54-19.4 174.34-21.65 195.94-21.65ZM196.74-26.45L196.39-24.2 175.19-26.45 196.74-26.45ZM193.39-7.25L192.99-5 171.79-7.25 193.39-7.25Z" fill="#e9e4de" data-fill-palette-color="primary"></path></g></svg></g></svg></g><g transform="matrix(1,0,0,1,0,38.91873577142857)"><svg viewBox="0 0 150.29760000000002 19.36395853044791" height="19.36395853044791" width="150.29760000000002"><g transform="matrix(1,0,0,1,0,0)"><svg width="150.29760000000002" viewBox="5 -28.75 298.03 38.4" height="19.36395853044791" data-palette-color="#e9e4de"><path d="M5 0L5-28.75 21-28.75 21-23.1 11.3-23.1 11.3-5.85 21-5.85 21 0 5 0ZM39.45-3.4L39.45-25.3 33.8-28.75 23.45-28.75 23.45-23.1 33.15-23.1 33.15-5.85 23.45-5.85 23.45 0 33.8 0 39.45-3.4ZM74.55-18.55L74.55-12.85 68.65-9.4 60.65-9.4 60.65-13.25 68.2-13.25 68.2-17.35 60.65-17.35 60.65-22.05 68.65-22.05 74.55-18.55ZM68-6.95L74.55-6.95 74.55-3.45 68.65 0 60.65 0 60.65-5.3 68-5.3 68-6.95ZM44.35-18.55L44.35-3.45 50.25 0 58.2 0 58.2-5.3 50.65-5.3 50.65-9.4 58.2-9.4 58.2-13.25 50.65-13.25 50.65-17.35 58.2-17.35 58.2-22.05 50.25-22.05 44.35-18.55ZM79.05-20.05L85.35-21.85 93.6-9.3 93.6 0 91.65 0 79.05-20.05ZM110.05-20.05L104-21.85 96.1-9.3 96.1 0 97.9 0 110.05-20.05ZM144.74-18.55L144.74-12.85 138.84-9.4 130.84-9.4 130.84-13.25 138.39-13.25 138.39-17.35 130.84-17.35 130.84-22.05 138.84-22.05 144.74-18.55ZM138.19-6.95L144.74-6.95 144.74-3.45 138.84 0 130.84 0 130.84-5.3 138.19-5.3 138.19-6.95ZM114.54-18.55L114.54-3.45 120.44 0 128.39 0 128.39-5.3 120.84-5.3 120.84-9.4 128.39-9.4 128.39-13.25 120.84-13.25 120.84-17.35 128.39-17.35 128.39-22.05 120.44-22.05 114.54-18.55ZM153.74 0.05L153.74-28.75 160.14-28.75 160.14 0.05 153.74 0.05ZM165.14-3.5L165.14-18.55 170.99-22 178.89-22 178.89-17.3 171.39-17.3 171.39-5.4 178.89-5.4 178.89-0.05 170.99-0.05 165.14-3.5ZM194.49-3.5L194.49-18.55 188.64-22 180.69-22 180.69-17.3 188.24-17.3 188.24-5.4 180.69-5.4 180.69-0.05 188.64-0.05 194.49-3.5ZM233.34-18.55L233.34-6.4 227.74-3 219.84-3 219.84-7 227.09-7 227.09-17.3 219.54-17.3 219.54-22 227.74-22 233.34-18.55ZM203.49 9.65L203.49-22 217.34-22 217.34-17.3 209.84-17.3 209.84-7 217.09-7 217.09-3 209.84-3 209.84 9.65 203.49 9.65ZM271.53-18.55L271.53-12.85 265.63-9.4 257.63-9.4 257.63-13.25 265.18-13.25 265.18-17.35 257.63-17.35 257.63-22.05 265.63-22.05 271.53-18.55ZM264.98-6.95L271.53-6.95 271.53-3.45 265.63 0 257.63 0 257.63-5.3 264.98-5.3 264.98-6.95ZM241.33-18.55L241.33-3.45 247.23 0 255.18 0 255.18-5.3 247.63-5.3 247.63-9.4 255.18-9.4 255.18-13.25 247.63-13.25 247.63-17.35 255.18-17.35 255.18-22.05 247.23-22.05 241.33-18.55ZM280.53 0L280.53-21.85 286.78-21.85 286.78-19.7 294.28-21.85 294.28-17.2 286.78-17.2 286.78 0 280.53 0ZM303.03-15.05L303.03-19.1 296.53-21.85 296.53-15.05 303.03-15.05Z" opacity="1" transform="matrix(1,0,0,1,0,0)" fill="#e9e4de" class="slogan-text-1" data-fill-palette-color="secondary" id="text-1"></path></svg></g></svg></g></svg></g></svg></g><g><svg viewBox="0 0 143.67865600680216 143.67865600680216" height="143.67865600680216" width="143.67865600680216"><g><svg></svg></g><g id="icon-0"><svg viewBox="0 0 143.67865600680216 143.67865600680216" height="143.67865600680216" width="143.67865600680216"><g><path d="M0 71.839c0-39.676 32.164-71.839 71.839-71.839 39.676 0 71.839 32.164 71.84 71.839 0 39.676-32.164 71.839-71.84 71.84-39.676 0-71.839-32.164-71.839-71.84zM71.839 140.839c38.108 0 69-30.892 69-69 0-38.108-30.892-69-69-69-38.108 0-69 30.892-69 69 0 38.108 30.892 69 69 69z" data-fill-palette-color="accent" fill="#99abc1" stroke="transparent"></path></g><g transform="matrix(1,0,0,1,30.439282380908217,28.642518538960587)"><svg viewBox="0 0 82.80009124498572 86.39361892888098" height="86.39361892888098" width="82.80009124498572"><g><svg xmlns="http://www.w3.org/2000/svg" xmlns:xlink="http://www.w3.org/1999/xlink" version="1.1" x="0" y="0" viewBox="33.7 16 444.7 464" style="enable-background:new 0 0 512 512;" xml:space="preserve" height="86.39361892888098" width="82.80009124498572" class="icon-cg-0" data-fill-palette-color="accent" id="cg-0"><path d="M448.1 224.7l30.2-16L464 165.1l-33.9 4.6-2.8-3.8c-9.6-13.1-21.7-31-28.5-41.3l-35.3 35.5c23.6 26.3 36.6 60.5 36.5 95.9 0 79.4-64.6 144-144 144s-144-64.6-144-144c-0.1-35.5 13-69.8 36.8-96.2l-35.4-35.4c-6.9 10.3-19.1 28.4-28.7 41.5l-2.8 3.8L48 165.1l-14.3 43.6 30.2 16v62.7l-30.2 16L48 346.9l33.9-4.6 37.2 50.6L104 423.7l37.6 27 25-23.7 60.1 19.3 6.1 33.7h46.5l6.1-33.7 60.1-19.3 25 23.7 37.6-27-15.1-30.8 37.2-50.6 33.9 4.6 14.3-43.6-30.2-16L448.1 224.7z" fill="#99abc1" data-fill-palette-color="accent"></path><path d="M264 240c4.4 0 8-3.6 8-8v-16h-32v16c0 4.4 3.6 8 8 8H264z" fill="#99abc1" data-fill-palette-color="accent"></path><path d="M309.2 225.1l-21.2-6.4V232c0 9.4-5.5 18-14.1 21.9l13.7 50.4L309.2 225.1z" fill="#99abc1" data-fill-palette-color="accent"></path><path d="M256 384c3.4 0 6.7-0.1 10-0.4l13.3-48.9L257.9 256h-3.8l-21.5 78.7 13.3 48.9C249.3 383.9 252.6 384 256 384z" fill="#99abc1" data-fill-palette-color="accent"></path><path d="M375.2 302.8l-14.9-44.6c-4.1-12.3-14-21.9-26.5-25.7l-9.3-2.8-41.3 151.3C325 371.9 359.5 342.5 375.2 302.8z" fill="#99abc1" data-fill-palette-color="accent"></path><path d="M224 232v-13.2l-21.2 6.4 21.6 79.1 13.7-50.4C229.5 250 224 241.4 224 232z" fill="#99abc1" data-fill-palette-color="accent"></path><path d="M208 156c0 15.1 7.1 29.3 19.2 38.4l7.5 5.6H248v-33c-14.1-3.7-24-16.4-24-31h16c0 8.8 7.2 16 16 16 8.8 0 16-7.2 16-16h16c0 14.6-9.9 27.3-24 31v33h13.3l7.5-5.6c12.1-9.1 19.2-23.3 19.2-38.4v-28c0-26.5-21.5-48-48-48s-48 21.5-48 48V156z" fill="#99abc1" data-fill-palette-color="accent"></path><path d="M178.2 232.5c-12.5 3.7-22.3 13.3-26.5 25.7l-14.9 44.6c15.7 39.8 50.1 69.1 91.9 78.3l-41.3-151.3L178.2 232.5z" fill="#99abc1" data-fill-palette-color="accent"></path><rect x="248" y="16" width="16" height="32" fill="#99abc1" data-fill-palette-color="accent"></rect><rect x="299" y="44" transform="matrix(0.7071 -0.7071 0.7071 0.7071 55.7847 238.6762)" width="33.9" height="16" fill="#99abc1" data-fill-palette-color="accent"></rect><rect x="334.1" y="88" transform="matrix(0.8944 -0.4472 0.4472 0.8944 -5.7709 167.5542)" width="35.8" height="16" fill="#99abc1" data-fill-palette-color="accent"></rect><rect x="188" y="35" transform="matrix(0.7071 -0.7071 0.7071 0.7071 20.6375 153.8234)" width="16" height="33.9" fill="#99abc1" data-fill-palette-color="accent"></rect><rect x="152" y="78.1" transform="matrix(0.4472 -0.8944 0.8944 0.4472 2.5808 196.1759)" width="16" height="35.8" fill="#99abc1" data-fill-palette-color="accent"></rect></svg></g></svg></g></svg></g></svg></g></svg></g></svg></g></svg></g><defs></defs></svg><rect width="512" height="320" fill="none" stroke="none" visibility="hidden"></rect></g></svg></g></svg>